<svg width="15" height="15" viewBox="0 0 15 15" fill="none" xmlns="http://www.w3.org/2000/svg">
<path opacity="0.5" d="M8.4375 5V6.25L10 6.875L11.25 6.25L12.5 5L12.8125 2.1875L10.3125 2.5L8.4375 3.75V5Z" fill="#4B8B3B"/>
<path opacity="0.5" d="M10.7812 8.90625L9.9252 12.7582C9.90201 12.8623 9.84403 12.9553 9.76084 13.022C9.67764 13.0887 9.5742 13.125 9.46758 13.125H5.53242C5.4258 13.125 5.32236 13.0887 5.23916 13.022C5.15597 12.9553 5.09799 12.8623 5.0748 12.7582L4.21875 8.90625H10.7812Z" fill="#4B8B3B"/>
<path opacity="0.5" d="M5.43216 4.82104C5.86433 5.5796 5.79401 5.79406 5.39701 6.33452C5.00001 6.87498 4.01707 6.48938 3.88353 6.36968C3.74999 6.24998 2.49988 5.93742 2.81244 3.74995C3.12499 1.56248 5 4.06248 5.43216 4.82104Z" fill="#4B8B3B"/>
<path d="M11.7187 8.43753H7.22456L7.36225 8.29984L8.53764 7.12445C9.01237 7.36353 9.53544 7.49099 10.0669 7.4971C10.6019 7.49852 11.1269 7.35212 11.5839 7.07406C12.9738 6.23265 13.7185 4.28499 13.5761 1.8639C13.5694 1.74922 13.5208 1.641 13.4396 1.55977C13.3584 1.47854 13.2502 1.42997 13.1355 1.42327C10.7144 1.28148 8.76674 2.02562 7.92475 3.41546C7.3769 4.32074 7.36284 5.41409 7.87436 6.46234L7.0312 7.3055L6.31577 6.59007C6.66733 5.8137 6.64213 5.00804 6.23432 4.33538C5.59741 3.28128 4.13667 2.71878 2.32788 2.82542C2.2134 2.83224 2.10539 2.8808 2.0243 2.96189C1.94321 3.04298 1.89466 3.15098 1.88784 3.26546C1.7812 5.07425 2.3437 6.53441 3.39838 7.17191C3.75123 7.38736 4.15684 7.50092 4.57026 7.50003C4.94532 7.49631 5.31528 7.41261 5.65542 7.25452L6.3685 7.96878L5.89975 8.43753H3.2812C3.15688 8.43753 3.03765 8.48692 2.94974 8.57483C2.86183 8.66273 2.81245 8.78196 2.81245 8.90628C2.81245 9.0306 2.86183 9.14983 2.94974 9.23774C3.03765 9.32565 3.15688 9.37503 3.2812 9.37503H3.84311L4.61713 12.8596C4.6623 13.0684 4.77791 13.2553 4.94455 13.389C5.11119 13.5227 5.31874 13.595 5.53237 13.5938H9.46811C9.68168 13.5948 9.88912 13.5224 10.0557 13.3887C10.2223 13.2551 10.338 13.0683 10.3833 12.8596L11.1574 9.37503H11.7187C11.843 9.37503 11.9622 9.32565 12.0502 9.23774C12.1381 9.14983 12.1874 9.0306 12.1874 8.90628C12.1874 8.78196 12.1381 8.66273 12.0502 8.57483C11.9622 8.48692 11.843 8.43753 11.7187 8.43753ZM8.73042 3.9012C9.34331 2.88988 10.7947 2.31917 12.6562 2.34437C12.6802 4.20824 12.1107 5.6596 11.0994 6.27015C10.4249 6.68031 9.61108 6.65335 8.7978 6.20101C8.34487 5.39066 8.32026 4.57562 8.73042 3.9012ZM5.39702 6.3346C4.85795 6.62288 4.32417 6.63636 3.88354 6.36976C3.20971 5.96136 2.82124 4.99867 2.81245 3.75003C4.06108 3.75882 5.02436 4.1473 5.43217 4.82113C5.69936 5.26175 5.68354 5.79554 5.39702 6.3346ZM9.46811 12.6563H5.53237L4.80463 9.37503H10.1953L9.46811 12.6563Z" fill="#4B8B3B"/>
</svg>
